<svg xmlns="http://www.w3.org/2000/svg" width="512" height="512" viewBox="0 0 512 512" role="img" aria-label="SCR1B3 — daemon-sigil scribe seal">
  <!--
    SCR1B3 app-icon master — CRT-IC demon-sigil family (sibling of ST3N0's
    daemon-sigil app icon). MONOCHROME: a single white seal on a near-black
    void plate (a chalk summoning-seal read). The shared house scaffolding —
    containment double-ring + radial graticule + odd-count goetic bind-rune
    spikes + cardinal pommel dots — encircles the per-repo CORE GLYPH, which
    for SCR1B3 ("scribe") is a fountain-pen NIB: the writing tool. Original
    radial/alchemical primitives only — no traced seal, no pentagram /
    Baphomet / hexagram.
  -->
  <defs>
    <radialGradient id="vig" cx="50%" cy="46%" r="66%">
      <stop offset="0%" stop-color="#070A0C" stop-opacity="0"/>
      <stop offset="74%" stop-color="#070A0C" stop-opacity="0"/>
      <stop offset="100%" stop-color="#070A0C" stop-opacity="0.65"/>
    </radialGradient>
    <clipPath id="plate"><rect x="16" y="16" width="480" height="480" rx="96" ry="96"/></clipPath>
  </defs>
  <g transform="translate(256,256)" stroke="#FFFFFF" fill="none" stroke-linecap="round" stroke-linejoin="round">
    <circle r="192" stroke-width="9"/>
    <circle r="174" stroke-width="3.5" stroke-opacity="0.7"/>
    <g stroke-width="5">
      <line x1="0" y1="-192" x2="0" y2="-206"/>
      <line x1="96" y1="-166.3" x2="103" y2="-178.4"/>
      <line x1="166.3" y1="-96" x2="178.4" y2="-103"/>
      <line x1="192" y1="0" x2="206" y2="0"/>
      <line x1="166.3" y1="96" x2="178.4" y2="103"/>
      <line x1="96" y1="166.3" x2="103" y2="178.4"/>
      <line x1="0" y1="192" x2="0" y2="206"/>
      <line x1="-96" y1="166.3" x2="-103" y2="178.4"/>
      <line x1="-166.3" y1="96" x2="-178.4" y2="103"/>
      <line x1="-192" y1="0" x2="-206" y2="0"/>
      <line x1="-166.3" y1="-96" x2="-178.4" y2="-103"/>
      <line x1="-96" y1="-166.3" x2="-103" y2="-178.4"/>
    </g>
    <g stroke-width="6" stroke-opacity="0.92">
      <path d="M0 -168 L0 -116 M-12 -136 L0 -116 L12 -136"/>
      <path d="M159.7 -51.9 L110.3 -35.8 M118.7 -50.4 L110.3 -35.8 L100.6 -41.4"/>
      <path d="M98.7 135.8 L68.2 93.8 M71.4 110.6 L68.2 93.8 L51.6 99.5"/>
      <path d="M-98.7 135.8 L-68.2 93.8 M-51.6 99.5 L-68.2 93.8 L-71.4 110.6"/>
      <path d="M-159.7 -51.9 L-110.3 -35.8 M-100.6 -41.4 L-110.3 -35.8 L-118.7 -50.4"/>
    </g>
    <g fill="#FFFFFF" stroke="none">
      <circle cx="0" cy="-116" r="6.5"/>
      <circle cx="116" cy="0" r="5.5"/>
      <circle cx="0" cy="116" r="6.5"/>
      <circle cx="-116" cy="0" r="5.5"/>
    </g>
    <g stroke-width="9">
      <path d="M-44 -54 Q-44 -70 -26 -70 L26 -70 Q44 -70 44 -54 L44 -22 Q44 22 0 74 Q-44 22 -44 -22 Z"/>
      <path d="M-34 -34 L34 -34" stroke-width="6" stroke-opacity="0.85"/>
    </g>
    <circle cx="0" cy="-12" r="11" stroke-width="7"/>
    <path d="M0 -1 L0 66" stroke-width="7"/>
  </g>
</svg>
