<svg xmlns="http://www.w3.org/2000/svg" width="256" height="256" viewBox="0 0 256 256" role="img" aria-label="SCR1B3 daemon-sigil scribe seal">
  <!--
    SCR1B3 monochrome SIGIL CORE: the daemon-sigil scribe seal as a single white
    foreground on a fully transparent background (NO plate / scanlines / vignette).
    Containment double-ring + radial graticule + 5 goetic bind-rune spikes +
    cardinal pommel dots around the per-repo CORE GLYPH — a fountain-pen NIB.
    Same construction as app-icon.svg; the shell/taskbar tints + plates it.
    Strokes thickened so the seal survives small. Same glyph family as the banner.
  -->
  <g transform="translate(128,128)" stroke="#FFFFFF" fill="none" stroke-linecap="round" stroke-linejoin="round">
    <circle r="96" stroke-width="6"/>
    <circle r="87" stroke-width="2.4" stroke-opacity="0.7"/>
    <g stroke-width="3.4">
      <line x1="0" y1="-96" x2="0" y2="-104"/>
      <line x1="48" y1="-83.1" x2="52" y2="-90"/>
      <line x1="83.1" y1="-48" x2="90" y2="-52"/>
      <line x1="96" y1="0" x2="104" y2="0"/>
      <line x1="83.1" y1="48" x2="90" y2="52"/>
      <line x1="48" y1="83.1" x2="52" y2="90"/>
      <line x1="0" y1="96" x2="0" y2="104"/>
      <line x1="-48" y1="83.1" x2="-52" y2="90"/>
      <line x1="-83.1" y1="48" x2="-90" y2="52"/>
      <line x1="-96" y1="0" x2="-104" y2="0"/>
      <line x1="-83.1" y1="-48" x2="-90" y2="-52"/>
      <line x1="-48" y1="-83.1" x2="-52" y2="-90"/>
    </g>
    <g stroke-width="3.6" stroke-opacity="0.92">
      <path d="M0 -84 L0 -58 M-6 -68 L0 -58 L6 -68"/>
      <path d="M79.8 -25.9 L55.1 -17.9 M59.3 -25.2 L55.1 -17.9 L50.3 -20.7"/>
      <path d="M49.3 67.9 L34.1 46.9 M35.7 55.3 L34.1 46.9 L25.8 49.7"/>
      <path d="M-49.3 67.9 L-34.1 46.9 M-25.8 49.7 L-34.1 46.9 L-35.7 55.3"/>
      <path d="M-79.8 -25.9 L-55.1 -17.9 M-50.3 -20.7 L-55.1 -17.9 L-59.3 -25.2"/>
    </g>
    <g fill="#FFFFFF" stroke="none">
      <circle cx="0" cy="-58" r="3.4"/>
      <circle cx="58" cy="0" r="2.8"/>
      <circle cx="0" cy="58" r="3.4"/>
      <circle cx="-58" cy="0" r="2.8"/>
    </g>
    <g stroke-width="5">
      <path d="M-22 -27 Q-22 -35 -13 -35 L13 -35 Q22 -35 22 -27 L22 -11 Q22 11 0 37 Q-22 11 -22 -11 Z"/>
    </g>
    <circle cx="0" cy="-6" r="5.5" stroke-width="3.6"/>
    <path d="M0 0 L0 33" stroke-width="3.6"/>
  </g>
</svg>
