<svg xmlns="http://www.w3.org/2000/svg" viewBox="0 0 1024 1024" width="1024" height="1024" role="img" aria-label="SCR1B3 app icon — caret-seal editor sigil">
  <title>SCR1B3 app icon — caret-seal editor sigil</title>
  <rect x="20" y="20" width="984" height="984" rx="208" fill="#020c0b"/>
  <rect x="60" y="60" width="904" height="904" rx="172" fill="none" stroke="#104742" stroke-width="2.5"/>
  <g stroke="#1a7068" stroke-width="3.2" stroke-linecap="round">
    <line x1="128" y1="150" x2="172" y2="150"/><line x1="150" y1="128" x2="150" y2="172"/>
    <line x1="852" y1="150" x2="896" y2="150"/><line x1="874" y1="128" x2="874" y2="172"/>
    <line x1="128" y1="874" x2="172" y2="874"/><line x1="150" y1="852" x2="150" y2="896"/>
    <line x1="852" y1="874" x2="896" y2="874"/><line x1="874" y1="852" x2="874" y2="896"/>
  </g>
  <path d="M 226 236 L 798 236 Q 828 236 828 266 L 828 762 Q 828 792 798 792 L 226 792 Q 196 792 196 762 L 196 266 Q 196 236 226 236 Z" fill="none" stroke="#34e0d0" stroke-width="13.0" stroke-linejoin="round" stroke-linecap="round"/>
  <g fill="none" stroke="#1c7b72" stroke-width="3.2" stroke-linecap="round" stroke-linejoin="round">
    <path d="M 762 236 L 828 302 L 762 302 Z"/>
  </g>
  <g fill="none" stroke="#1c7b72" stroke-width="3.2" stroke-linecap="round">
    <line x1="308.0" y1="314.0" x2="308.0" y2="682.0"/>
  </g>
  <g fill="none" stroke="#1c7b72" stroke-width="3.2">
    <circle cx="290" cy="330" r="4" fill="#1c7b72"/>
    <circle cx="290" cy="372" r="4" fill="#1c7b72"/>
    <circle cx="290" cy="414" r="4" fill="#1c7b72"/>
    <circle cx="290" cy="456" r="4" fill="#1c7b72"/>
    <circle cx="290" cy="498" r="4" fill="#1c7b72"/>
    <circle cx="290" cy="540" r="4" fill="#1c7b72"/>
    <circle cx="290" cy="582" r="4" fill="#1c7b72"/>
    <circle cx="290" cy="624" r="4" fill="#1c7b72"/>
    <circle cx="290" cy="666" r="4" fill="#1c7b72"/>
  </g>
  <g fill="none" stroke="#34e0d0" stroke-width="4.55" stroke-linecap="round">
    <line x1="338.0" y1="330.0" x2="624.0" y2="330.0"/>
    <line x1="370.0" y1="372.0" x2="560.0" y2="372.0"/>
    <line x1="370.0" y1="414.0" x2="648.0" y2="414.0"/>
    <line x1="402.0" y1="456.0" x2="558.0" y2="456.0"/>
    <line x1="370.0" y1="498.0" x2="606.0" y2="498.0"/>
    <line x1="338.0" y1="540.0" x2="520.0" y2="540.0"/>
    <line x1="370.0" y1="582.0" x2="648.0" y2="582.0"/>
    <line x1="338.0" y1="624.0" x2="478.0" y2="624.0"/>
    <line x1="338.0" y1="666.0" x2="556.0" y2="666.0"/>
  </g>
  <g fill="#1c7b72">
    <path d="M 296 490 L 312 498 L 296 506 Z"/>
  </g>
  <g fill="#34e0d0">
    <rect x="614" y="488" width="22" height="20" rx="4"/>
  </g>
  <style>@media (prefers-reduced-motion: reduce){*{animation:none !important}}</style>
</svg>
