<!-- Itasha Corp brand banner — aspect ratio 21:9 (1680×720) — CRT-IC v3 -->
<svg xmlns="http://www.w3.org/2000/svg" viewBox="0 0 1680 720" width="1680" height="720" role="img" aria-label="SCR1B3 — Itasha Corp">
  <defs>
    <pattern id="scan" patternUnits="userSpaceOnUse" width="1680" height="4">
      <rect width="1680" height="2" fill="transparent"/><rect y="2" width="1680" height="2" fill="rgba(0,0,0,0.16)"/>
    </pattern>
    <radialGradient id="vig" cx="50%" cy="48%" r="72%">
      <stop offset="0%" stop-color="transparent"/><stop offset="100%" stop-color="rgba(0,0,0,0.5)"/>
    </radialGradient>
    <linearGradient id="grid" x1="0" y1="0" x2="0" y2="1">
      <stop offset="0%" stop-color="#34e0d0" stop-opacity="0"/><stop offset="100%" stop-color="#34e0d0" stop-opacity="0.5"/>
    </linearGradient>
    <filter id="phos"><feGaussianBlur in="SourceGraphic" stdDeviation="0.7" result="b"/><feMerge><feMergeNode in="b"/><feMergeNode in="SourceGraphic"/></feMerge></filter>
    <filter id="soft"><feGaussianBlur stdDeviation="2.4"/></filter>
    <filter id="glow"><feGaussianBlur stdDeviation="2.6" result="b"/><feMerge><feMergeNode in="b"/><feMergeNode in="SourceGraphic"/></feMerge></filter>
    <filter id="sigilGlow" x="-70%" y="-70%" width="240%" height="240%"><feGaussianBlur in="SourceGraphic" stdDeviation="1.8" result="sb"><animate attributeName="stdDeviation" values="1.4;3.4;1.4" dur="3.6s" calcMode="spline" keySplines="0.4 0 0.6 1;0.4 0 0.6 1" repeatCount="indefinite"/></feGaussianBlur><feMerge><feMergeNode in="sb"/><feMergeNode in="SourceGraphic"/></feMerge></filter>
    <radialGradient id="sigilBloom" cx="50%" cy="50%" r="50%"><stop offset="0%" stop-color="#9af4ea" stop-opacity="0.34"/><stop offset="42%" stop-color="#9af4ea" stop-opacity="0.13"/><stop offset="100%" stop-color="#9af4ea" stop-opacity="0"/></radialGradient>
    <path id="ringPathOuter" d="M 0 -64 A 64 64 0 1 1 -0.01 -64" fill="none"/>
    <clipPath id="sc"><rect x="28" y="22" width="1624" height="672" rx="6"/></clipPath>
    <radialGradient id="glass" cx="36%" cy="22%" r="62%"><stop offset="0%" stop-color="#ffffff" stop-opacity="0.06"/><stop offset="55%" stop-color="#ffffff" stop-opacity="0"/></radialGradient>
    <pattern id="phosmask" width="3" height="1" patternUnits="userSpaceOnUse"><rect width="1" height="1" x="0" fill="#ff2a2a"/><rect width="1" height="1" x="1" fill="#2aff2a"/><rect width="1" height="1" x="2" fill="#2a2aff"/></pattern>
    <path id="ringPath" d="M 0 -38 A 38 38 0 1 1 -0.01 -38" fill="none"/>
    <radialGradient id="radarSweep" cx="0" cy="0" r="62"><stop offset="0%" stop-color="#34e0d0" stop-opacity="0.45"/><stop offset="100%" stop-color="#34e0d0" stop-opacity="0"/></radialGradient>
  </defs>
  <style>
    text { font-family: 'JetBrains Mono','SF Mono','Fira Code','Cascadia Code',Consolas,monospace; }
    @keyframes sweep { 0% { transform: translateY(0); } 100% { transform: translateY(672px); } }
    @keyframes flicker { 0%,96%,100% { opacity: 1; } 97% { opacity: 0.97; } 98% { opacity: 0.995; } }
    @keyframes bootReveal { 0% { opacity: 0; } 100% { opacity: 0.92; } }
    @keyframes curBlink { 0%,50% { opacity: 1; } 51%,100% { opacity: 0; } }
    @keyframes heartbeat { 0%,100% { transform: scale(1); opacity: 0.55; } 15% { transform: scale(1.3); opacity: 0.95; } 30% { transform: scale(1); opacity: 0.55; } 50% { transform: scale(1.1); opacity: 0.8; } }
    @keyframes edgeGlow { 0% { stroke-dashoffset: 4600; } 100% { stroke-dashoffset: 0; } }
    @keyframes phosphorBloom { 0%,100% { opacity: 0; } 50% { opacity: 0.02; } }
    @keyframes nodeBlink { 0%,100% { opacity: 0.9; } 50% { opacity: 0.35; } }
    @keyframes kanjiPulse { 0%,100% { opacity: 0.1; } 50% { opacity: 0.2; } }
    @keyframes rollBar { 0% { transform: translateY(-70px); } 100% { transform: translateY(760px); } }
    @keyframes dataBlink { 0%,100% { opacity: 0.12; } 50% { opacity: 0.7; } }
    @keyframes titleGlitch { 0%,90%,100% { transform: translate(0,0); } 91% { transform: translate(-2px,1px); } 94% { transform: translate(2px,-1px); } 97% { transform: translate(-1px,0); } }
    @keyframes okPulse { 0%,100% { opacity: 0.5; } 50% { opacity: 1; } }
    @keyframes linePulse { 0%,100% { opacity: 0.8; } 50% { opacity: 1; } }
    @keyframes titleBreathe { 0%,100% { opacity: 1; } 50% { opacity: 0.85; } }
    @keyframes crtBlank { 0%,90% { opacity: 0; } 91.5% { opacity: 1; } 97% { opacity: 1; } 98.6% { opacity: 0; } 100% { opacity: 0; } }
    @keyframes crtLine { 0%,89.5% { opacity: 0; transform: scaleY(1); } 90.4% { opacity: 0.95; transform: scaleY(0.03); } 91.4% { opacity: 0; transform: scaleY(0.01); } 97.4% { opacity: 0; transform: scaleY(0.02); } 98.2% { opacity: 0.95; transform: scaleY(0.08); } 99.2% { opacity: 0; transform: scaleY(1); } 100% { opacity: 0; } }
    @media (prefers-reduced-motion: reduce) { * { animation: none !important; } }
  </style>

  <rect x="0" y="0" width="1680" height="720" rx="14" fill="#0b0f12"/>
  <rect x="2" y="2" width="1676" height="716" rx="13" fill="#1a242b" stroke="#2a3a42" stroke-width="1"/>
  <line x1="24" y1="13" x2="1656" y2="13" stroke="#2a3a42" stroke-width="0.5"/>
  <line x1="24" y1="700" x2="1656" y2="700" stroke="#2a3a42" stroke-width="0.5"/>
  <rect x="28" y="22" width="1624" height="672" rx="6" fill="#070a0c"/>

  <g clip-path="url(#sc)">
    <g stroke="url(#grid)" stroke-width="0.6" opacity="0.5">
      <line x1="840" y1="492" x2="40" y2="694"/><line x1="840" y1="492" x2="280" y2="694"/>
      <line x1="840" y1="492" x2="520" y2="694"/><line x1="840" y1="492" x2="700" y2="694"/>
      <line x1="840" y1="492" x2="840" y2="694"/><line x1="840" y1="492" x2="980" y2="694"/>
      <line x1="840" y1="492" x2="1180" y2="694"/><line x1="840" y1="492" x2="1400" y2="694"/>
      <line x1="840" y1="492" x2="1640" y2="694"/>
    </g>
    <g stroke="#34e0d0" stroke-width="0.5" opacity="0.2">
      <line x1="120" y1="582" x2="1560" y2="582"/><line x1="80" y1="630" x2="1600" y2="630"/><line x1="48" y1="678" x2="1632" y2="678"/>
    </g>
    <!-- ambient "the wired" data nodes -->
    <g fill="#34e0d0">
      <circle cx="460" cy="624" r="1.6" style="animation: dataBlink 2.6s ease-in-out 0s infinite;"/>
      <circle cx="920" cy="666" r="1.6" style="animation: dataBlink 3.1s ease-in-out 0.8s infinite;"/>
      <circle cx="1300" cy="600" r="1.6" style="animation: dataBlink 2.4s ease-in-out 1.4s infinite;"/>
      <circle cx="650" cy="678" r="1.6" fill="#7ceee2" style="animation: dataBlink 3.4s ease-in-out 2s infinite;"/>
    </g>
    <!-- CRT roll bar: soft band drifting down the screen -->
    <rect x="28" y="22" width="1624" height="46" fill="#34e0d0" opacity="0.035" style="animation: rollBar 7s linear infinite;"/>
    <rect x="28" y="22" width="1624" height="3" fill="#34e0d0" opacity="0.05" style="animation: sweep 9s linear infinite;"/>
    <rect x="28" y="22" width="1624" height="672" fill="#ffffff" opacity="0" style="animation: phosphorBloom 8s ease-in-out infinite;"/>

    <!-- ============================================================ -->
    <!-- CENTRAL ANIMATED DAEMON-SIGIL (SMIL — load-bearing motion)   -->
    <!-- Layered summoning circle: containment ring + graticule +     -->
    <!-- glyph/kanji band + faint kamea grid + odd-count bind-runes + -->
    <!-- per-repo M-9 -14 L9 -14 M-9 14 L9 14 M0 -14 L0 14 M-12 0 L-7 0 M7 0 L12 0 core glyph. Resting frame = assembled.-->
    <!-- Centred anchor at the screen-plate centre x=840, content-band   -->
    <!-- centre y=430 (v4). Base scale 1.18 makes the sigil a notch larger.-->
    <!-- ============================================================ -->
    <g transform="translate(840,430) scale(1.18)" opacity="0.9" filter="url(#sigilGlow)">
      <!-- breathing wrapper -->
      <animateTransform attributeName="transform" type="scale" additive="sum" values="1;1.022;1" dur="5s" repeatCount="indefinite"/>
      <!-- summoned-seal bloom backdrop: makes the sigil read as the anchor -->
      <circle r="124" fill="url(#sigilBloom)"/>
      <!-- faint kamea (magic-square) grid behind center -->
      <g stroke="#34e0d0" stroke-width="0.5" opacity="0.2">
        <line x1="-26" y1="-26" x2="26" y2="-26"/><line x1="-26" y1="-9" x2="26" y2="-9"/>
        <line x1="-26" y1="9" x2="26" y2="9"/><line x1="-26" y1="26" x2="26" y2="26"/>
        <line x1="-26" y1="-26" x2="-26" y2="26"/><line x1="-9" y1="-26" x2="-9" y2="26"/>
        <line x1="9" y1="-26" x2="9" y2="26"/><line x1="26" y1="-26" x2="26" y2="26"/>
      </g>
      <!-- outer kanji band on its own wide ring (counter-rotates) -->
      <g>
        <animateTransform attributeName="transform" type="rotate" from="0" to="360" dur="60s" repeatCount="indefinite"/>
        <circle r="64" stroke="#34e0d0" stroke-width="0.5" fill="none" opacity="0.35"/>
        <text font-size="11.5" fill="#34e0d0" opacity="0.85" letter-spacing="2.2" font-family="'Noto Sans JP','Yu Gothic','Hiragino Sans',sans-serif">
          <textPath href="#ringPathOuter" startOffset="4%">書記 · SCR1B3 · 書記 · SCR1B3 ·</textPath>
        </text>
      </g>
      <!-- outer containment ring + radial graticule (rotates one way) -->
      <g stroke="#34e0d0" fill="none">
        <animateTransform attributeName="transform" type="rotate" from="0" to="360" dur="48s" repeatCount="indefinite"/>
        <circle r="82" stroke-width="1.5" opacity="0.95"/>
        <circle r="76" stroke-width="1.0" opacity="0.75"/>
        <g stroke-width="1.1" opacity="0.85">
          <line x1="0" y1="-82" x2="0" y2="-76"/><line x1="41" y1="-71" x2="38" y2="-66"/>
          <line x1="71" y1="-41" x2="66" y2="-38"/><line x1="82" y1="0" x2="76" y2="0"/>
          <line x1="71" y1="41" x2="66" y2="38"/><line x1="41" y1="71" x2="38" y2="66"/>
          <line x1="0" y1="82" x2="0" y2="76"/><line x1="-41" y1="71" x2="-38" y2="66"/>
          <line x1="-71" y1="41" x2="-66" y2="38"/><line x1="-82" y1="0" x2="-76" y2="0"/>
          <line x1="-71" y1="-41" x2="-66" y2="-38"/><line x1="-41" y1="-71" x2="-38" y2="-66"/>
        </g>
      </g>
      <!-- inner glyph / kanji band on a hidden ring (rotates the other way) -->
      <g>
        <animateTransform attributeName="transform" type="rotate" from="360" to="0" dur="32s" repeatCount="indefinite"/>
        <text font-size="11" fill="#34e0d0" opacity="0.9" font-family="'Noto Sans JP','Yu Gothic','Hiragino Sans',sans-serif">
          <textPath href="#ringPath" startOffset="6%">書記 · SCR1B3 · 書記 ·</textPath>
        </text>
      </g>
      <!-- odd-count (5) bind-rune spikes from ring toward center -->
      <g stroke="#34e0d0" stroke-width="1.3" opacity="0.78">
        <path d="M0 -73 L0 -40 M-3.8 -47 L0 -40 L3.8 -47"/>
        <path d="M69.4 -22.5 L38 -12.3 M35.6 -18.2 L38 -12.3 L32.4 -13.4"/>
        <path d="M42.9 59 L23.5 32.3 M24.7 38.8 L23.5 32.3 L17.7 34.2"/>
        <path d="M-42.9 59 L-23.5 32.3 M-17.7 34.2 L-23.5 32.3 L-24.7 38.8"/>
        <path d="M-69.4 -22.5 L-38 -12.3 M-32.4 -13.4 L-38 -12.3 L-35.6 -18.2"/>
      </g>
      <!-- central CORE GLYPH: per-repo domain monogram, draws on (pathLength=200) -->
      <g stroke="#34e0d0" stroke-width="1.9" fill="none" stroke-linecap="round" stroke-linejoin="miter" transform="scale(1.85)">
        <path d="M-9 -14 L9 -14 M-9 14 L9 14 M0 -14 L0 14 M-12 0 L-7 0 M7 0 L12 0" pathLength="200" stroke-dasharray="200" stroke-dashoffset="0" filter="url(#glow)">
          <animate attributeName="stroke-dashoffset" from="200" to="0" dur="2.4s" begin="0s" fill="freeze" calcMode="spline" keySplines="0.6 0 0.2 1"/>
          <animate attributeName="stroke-width" values="1.9;1.9;3.0;1.9" keyTimes="0;0.85;0.9;1" dur="6s" begin="2.4s" repeatCount="indefinite"/>
        </path>
      </g>
      <!-- terminal pommel dots (goetic signature) -->
      <g fill="#34e0d0">
        <circle cx="0" cy="-40" r="2.4"/><circle cx="0" cy="40" r="2.4"/><circle cx="-35" cy="0" r="2.0"/><circle cx="35" cy="0" r="2.0"/>
      </g>
    </g>
  </g>
  <rect x="28" y="22" width="1624" height="672" rx="6" fill="url(#scan)"/>
  <rect x="28" y="22" width="1624" height="672" rx="6" fill="url(#vig)"/>
  <rect x="28" y="22" width="1624" height="672" rx="6" fill="url(#phosmask)" opacity="0.04"/>
  <rect x="28" y="22" width="1624" height="672" rx="6" fill="url(#glass)"/>
  <rect x="28" y="22" width="1624" height="672" rx="6" fill="none" stroke="#34e0d0" stroke-width="1" opacity="0.07" stroke-dasharray="22,4600" style="animation: edgeGlow 11s linear infinite;"/>
  <rect x="28" y="22" width="1624" height="672" rx="6" fill="none" stroke="#1a242b"/>

  <g stroke="#34e0d0" stroke-width="1.4" fill="none" opacity="0.55">
    <path d="M56 54 h26 M56 54 v26"/><path d="M1624 54 h-26 M1624 54 v26"/>
    <path d="M56 662 h26 M56 662 v-26"/><path d="M1624 662 h-26 M1624 662 v-26"/>
  </g>

    <text x="1604" y="118" text-anchor="end" font-size="48" fill="#34e0d0" opacity="0.13" font-family="'Noto Sans JP','Yu Gothic','Hiragino Sans',sans-serif" style="animation: kanjiPulse 6s ease-in-out infinite;">書記</text>
  <g style="animation: flicker 7s infinite;">
    <text x="840" y="92" text-anchor="middle" font-size="14" fill="#5a6b73" letter-spacing="8" filter="url(#phos)" style="font-family: 'Times New Roman','Times','Matisse',serif; font-weight: 700; transform: scaleX(0.82); transform-origin: 840px 92px; animation: titleBreathe 6s ease-in-out infinite;">I T A S H A . C O R P</text>
    <g font-size="82" font-weight="bold" letter-spacing="7" text-anchor="middle">
      <text x="843" y="172" fill="#7ceee2" opacity="0.5" filter="url(#soft)" style="animation: titleGlitch 5.5s steps(1) infinite; transform-origin: 840px 172px;">SCR1B3</text>
      <text x="837" y="172" fill="#34e0d0" opacity="0.5" filter="url(#soft)" style="animation: titleGlitch 6.3s steps(1) 0.1s infinite; transform-origin: 840px 172px;">SCR1B3</text>
      <text x="840" y="172" fill="#e9f7ff" filter="url(#glow)" style="animation: titleBreathe 4s ease-in-out infinite;">SCR1B3</text>
    </g>
    <text x="840" y="210" text-anchor="middle" font-size="17" fill="#34e0d0" letter-spacing="3.4" filter="url(#phos)">code editor caret</text>
    <!-- secondary data strip under the subtitle: fills the upper-centre band -->
    <g text-anchor="middle" style="animation: flicker 8s infinite;">
      <line x1="690" y1="224" x2="990" y2="224" stroke="#ff6f91" stroke-width="0.7" opacity="0.3"/>
      <text x="840" y="240" font-size="11" fill="#ff6f91" letter-spacing="3.2" opacity="0.62">[ SCRIBE-CORE ] · buffer: mapped · EDITING</text>
    </g>

    <!-- content-band lift: boot block + right instrument shift up uniformly so -->
    <!-- the lowest content clears the bottom corner brackets. -->
    <g transform="translate(0,-14)">
    <g filter="url(#phos)">
      <text x="80" y="266" font-size="14" fill="#5a6b73">SCRIBE-CORE --boot</text>
      <text x="366" y="266" text-anchor="end" font-size="11" fill="#ff6f91" opacity="0.55" letter-spacing="1">EDITING</text>
      <line x1="80" y1="276" x2="366" y2="276" stroke="#5a6b73" stroke-width="0.8" opacity="0.7"/>
      <text x="100" y="310" font-size="15" fill="#34e0d0" xml:space="preserve" style="animation: bootReveal 0.35s ease-out 0.2s both, linePulse 3.6s ease-in-out 0.0s infinite;"><tspan>&gt; map rope buffer</tspan><tspan x="288" fill="#8fe0b4" style="animation: okPulse 2s ease-in-out 0.6s infinite;">[ OK ]</tspan></text>
      <text x="100" y="346" font-size="15" fill="#34e0d0" xml:space="preserve" style="animation: bootReveal 0.35s ease-out 0.5s both, linePulse 3.6s ease-in-out 0.4s infinite;"><tspan>&gt; load tree-sitter</tspan><tspan x="288" fill="#8fe0b4" style="animation: okPulse 2s ease-in-out 1.0s infinite;">[ OK ]</tspan></text>
      <text x="100" y="382" font-size="15" fill="#34e0d0" xml:space="preserve" style="animation: bootReveal 0.35s ease-out 0.8s both, linePulse 3.6s ease-in-out 0.8s infinite;"><tspan>&gt; spawn LSP client</tspan><tspan x="288" fill="#8fe0b4" style="animation: okPulse 2s ease-in-out 1.4s infinite;">[ OK ]</tspan></text>
      <text x="100" y="418" font-size="15" fill="#34e0d0" xml:space="preserve" style="animation: bootReveal 0.35s ease-out 1.1s both, linePulse 3.6s ease-in-out 1.2s infinite;"><tspan>&gt; raise caret</tspan><tspan x="288" fill="#8fe0b4" style="animation: okPulse 2s ease-in-out 1.8s infinite;">[ OK ]</tspan></text>
      <text x="100" y="454" font-size="15" fill="#34e0d0" xml:space="preserve" style="animation: bootReveal 0.35s ease-out 1.4s both, linePulse 3.6s ease-in-out 1.6s infinite;"><tspan>&gt; render glyphs</tspan><tspan x="288" fill="#8fe0b4" style="animation: okPulse 2s ease-in-out 2.2s infinite;">[ OK ]</tspan></text>
      <line x1="80" y1="478" x2="366" y2="478" stroke="#5a6b73" stroke-width="0.8" opacity="0.7"/>
      <text x="80" y="514" font-size="15" fill="#8fe0b4">root@itasha:scribe$<tspan dx="6" fill="#34e0d0" style="animation: curBlink 1.1s step-end infinite;">█</tspan></text>
      <text x="80" y="548" font-size="12.5" fill="#5a6b73" letter-spacing="2">local · gpu · no-telemetry</text>
      <!-- info readout strip below the prompt: fills the lower-left dead band -->
      <g font-size="11" letter-spacing="1.4" style="animation: dataBlink 4s ease-in-out infinite;">
        <text x="80" y="576" fill="#ff6f91" opacity="0.6">node SCRIBE-CORE :: buffer mapped</text>
        <rect x="80" y="586" width="9" height="9" fill="#8fe0b4" opacity="0.55"/>
        <rect x="95" y="586" width="9" height="9" fill="#34e0d0" opacity="0.5"/>
        <rect x="110" y="586" width="9" height="9" fill="#ff6f91" opacity="0.45"/>
        <rect x="125" y="586" width="9" height="9" fill="#7ceee2" opacity="0.4"/>
        <text x="146" y="595" fill="#5a6b73" opacity="0.7">link nominal · uplink EDITING</text>
      </g>
    </g>

    <!-- ============================================================ -->
    <!-- WIDE RIGHT-SIDE INSTRUMENT CLUSTER (uses the right third)     -->
    <!-- Layered: oscilloscope/ECG waveform w/ traveling trace-dot     -->
    <!-- (animateMotion+mpath) + elliptical radar sweep w/ blips +     -->
    <!-- spectrum-bar equalizer + node-graph + per-repo CARET // glyph stream      -->
    <!-- status panel. All load-bearing motion is SMIL (GitHub <img>). -->
    <!-- ============================================================ -->
    <g transform="translate(1024, 234)" style="animation: flicker 9s infinite;" opacity="0.94">
      <!-- instrument frame chrome: graticule corners + axis labels + caption -->
      <!-- so the cluster reads as a full bench instrument, not a tiny widget. -->
      <text x="20" y="18" fill="#34e0d0" font-size="10.5" letter-spacing="1.8" opacity="0.78">CARET // glyph stream</text>
      <text x="572" y="18" text-anchor="end" fill="#ff6f91" font-size="9" letter-spacing="1.4" opacity="0.6">CH-01 · EDITING</text>
      <g stroke="#ff6f91" stroke-width="1.1" fill="none" opacity="0.5">
        <path d="M16 28 h14 M16 28 v14"/><path d="M576 28 h-14 M576 28 v14"/>
        <path d="M16 304 h14 M16 304 v-14"/><path d="M576 304 h-14 M576 304 v-14"/>
      </g>
      <!-- secondary-colour axis ticks down the right edge of the bench -->
      <g stroke="#ff6f91" stroke-width="0.8" opacity="0.35">
        <line x1="580" y1="64" x2="588" y2="64"/><line x1="580" y1="112" x2="588" y2="112"/>
        <line x1="580" y1="160" x2="588" y2="160"/><line x1="580" y1="208" x2="588" y2="208"/>
        <line x1="580" y1="256" x2="588" y2="256"/>
      </g>
      <text x="596" y="160" fill="#ff6f91" font-size="8.5" opacity="0.5" transform="rotate(90 596 160)" text-anchor="middle" letter-spacing="2">AMPLITUDE</text>

      <!-- BESPOKE per-repo right instrument. The MOTIF-BLOCK       -->
      <!-- placeholder is filled by repo_motif_library.get_motif(MOTIF_KEY).   -->
      <!-- Authored once at header scale; the social card reuses the same      -->
      <!-- fragment via the social MOTIF-BLOCK (scale 0.82). v4: the cluster is -->
      <!-- scaled up to fill the right region in every direction.              -->
      <g transform="translate(2, 34) scale(1.12)">
              <g filter="url(#phos)">
        <rect x="40" y="34" width="500" height="232" rx="4" fill="none" stroke="#34e0d0" stroke-width="0.5" opacity="0.22"/>
        <!-- warding seal ring with rune ticks -->
        <g transform="translate(290,150)">
          <circle r="96" fill="none" stroke="#34e0d0" stroke-width="1.2" opacity="0.5"><animateTransform attributeName="transform" type="rotate" from="0" to="360" dur="40s" repeatCount="indefinite"/></circle>
          <circle r="84" fill="none" stroke="#ff6f91" stroke-width="0.7" opacity="0.4"><animateTransform attributeName="transform" type="rotate" from="360" to="0" dur="28s" repeatCount="indefinite"/></circle>
          <g stroke="#ff6f91" stroke-width="1.1" opacity="0.55">
            <line x1="0" y1="-96" x2="0" y2="-86"/><line x1="68" y1="-68" x2="61" y2="-61"/><line x1="96" y1="0" x2="86" y2="0"/>
            <line x1="68" y1="68" x2="61" y2="61"/><line x1="0" y1="96" x2="0" y2="86"/><line x1="-68" y1="68" x2="-61" y2="61"/>
            <line x1="-96" y1="0" x2="-86" y2="0"/><line x1="-68" y1="-68" x2="-61" y2="-61"/>
          </g>
          <!-- signature glyph drawing on (pathLength) -->
          <path d="M-48 28 C-30 -34 -8 -34 4 6 C12 32 26 30 40 -20 C46 -38 54 -36 60 -18" fill="none" stroke="#9af4ea" stroke-width="2.4" stroke-linecap="round" pathLength="200" stroke-dasharray="200" filter="url(#glow)">
            <animate attributeName="stroke-dashoffset" from="200" to="0" dur="3.2s" begin="0s" fill="freeze" calcMode="spline" keySplines="0.6 0 0.2 1"/>
            <animate attributeName="opacity" values="0.6;1;0.6" dur="4s" begin="3.2s" repeatCount="indefinite"/>
          </path>
        </g>
        <!-- I-beam caret blinking over the seal -->
        <g transform="translate(290,150)">
          <path d="M-7 -44 L7 -44 M-7 44 L7 44 M0 -44 L0 44" stroke="#e9f7ff" stroke-width="2.2" fill="none" filter="url(#glow)">
            <animate attributeName="opacity" values="1;1;0.1;1" dur="1.2s" repeatCount="indefinite"/>
          </path>
        </g>
      </g>
    
      </g>
      <!-- secondary live readout strip beneath the instrument -->
      <g transform="translate(20, 318)" font-size="10.5" letter-spacing="1.2">
        <text fill="#ff6f91" opacity="0.7">buffer</text>
        <text x="118" fill="#34e0d0" opacity="0.85">mapped</text>
        <circle cx="220" cy="-4" r="3" fill="#8fe0b4" opacity="0.8" style="animation: nodeBlink 2.4s ease-in-out infinite;"/>
        <text x="234" fill="#5a6b73" opacity="0.7">live</text>
      </g>
    </g>
    </g>
  </g>

  <g>
    <circle cx="56" cy="707" r="3.5" fill="#6fb89a" opacity="0.7" style="animation: heartbeat 2.4s ease-in-out infinite; transform-origin: 56px 707px;"/>
    <circle cx="71" cy="707" r="3" fill="#34e0d0" opacity="0.45"/>
    <circle cx="86" cy="707" r="3" fill="#7ceee2" opacity="0.4"/>
    <text x="108" y="707" font-size="9" fill="#3a4a52" letter-spacing="3.2" dominant-baseline="central">ITASHA.CORP</text>
    <text x="840" y="707" font-size="9" fill="#3a4a52" letter-spacing="3" dominant-baseline="central" text-anchor="middle">SCRIBE-CORE · present day · present time</text>
    <text x="1608" y="707" font-size="9" fill="#3a4a52" letter-spacing="2.4" dominant-baseline="central" text-anchor="end">CRT-IC v3</text>
    <circle cx="1624" cy="707" r="4" fill="#6fb89a" opacity="0.5"/>
    <circle cx="1624" cy="707" r="2" fill="#6fb89a" opacity="0.95" style="animation: heartbeat 2.4s ease-in-out infinite; transform-origin: 1624px 707px;"/>
  </g>
  <rect x="28" y="22" width="1624" height="672" rx="6" fill="#050608" opacity="0" style="animation: crtBlank 14s ease-in-out infinite;"/>
  <rect x="28" y="357.0" width="1624" height="3" fill="#e9f7ff" opacity="0" style="animation: crtLine 14s ease-in-out infinite; transform-origin: 840px 358.5px;"/>
</svg>
