<svg xmlns="http://www.w3.org/2000/svg" viewBox="0 0 1280 640" width="1280" height="640" role="img" aria-label="SCR1B3 — Itasha Corp">
  <defs>
    <pattern id="scan" patternUnits="userSpaceOnUse" width="1280" height="4">
      <rect width="1280" height="2" fill="transparent"/><rect y="2" width="1280" height="2" fill="rgba(0,0,0,0.16)"/>
    </pattern>
    <radialGradient id="vig" cx="50%" cy="48%" r="72%">
      <stop offset="0%" stop-color="transparent"/><stop offset="100%" stop-color="rgba(0,0,0,0.5)"/>
    </radialGradient>
    <linearGradient id="grid" x1="0" y1="0" x2="0" y2="1">
      <stop offset="0%" stop-color="#34e0d0" stop-opacity="0"/><stop offset="100%" stop-color="#34e0d0" stop-opacity="0.5"/>
    </linearGradient>
    <filter id="phos"><feGaussianBlur in="SourceGraphic" stdDeviation="0.7" result="b"/><feMerge><feMergeNode in="b"/><feMergeNode in="SourceGraphic"/></feMerge></filter>
    <filter id="soft"><feGaussianBlur stdDeviation="2.4"/></filter>
    <filter id="glow"><feGaussianBlur stdDeviation="2.6" result="b"/><feMerge><feMergeNode in="b"/><feMergeNode in="SourceGraphic"/></feMerge></filter>
    <filter id="sigilGlow" x="-60%" y="-60%" width="220%" height="220%"><feGaussianBlur in="SourceGraphic" stdDeviation="1.2" result="sb"><animate attributeName="stdDeviation" values="0.9;2.4;0.9" dur="3.6s" calcMode="spline" keySplines="0.4 0 0.6 1;0.4 0 0.6 1" repeatCount="indefinite"/></feGaussianBlur><feMerge><feMergeNode in="sb"/><feMergeNode in="SourceGraphic"/></feMerge></filter>
    <clipPath id="sc"><rect x="28" y="22" width="1224" height="592" rx="6"/></clipPath>
    <radialGradient id="glass" cx="36%" cy="22%" r="62%"><stop offset="0%" stop-color="#ffffff" stop-opacity="0.06"/><stop offset="55%" stop-color="#ffffff" stop-opacity="0"/></radialGradient>
    <pattern id="phosmask" width="3" height="1" patternUnits="userSpaceOnUse"><rect width="1" height="1" x="0" fill="#ff2a2a"/><rect width="1" height="1" x="1" fill="#2aff2a"/><rect width="1" height="1" x="2" fill="#2a2aff"/></pattern>
    <path id="ringPath" d="M 0 -50 A 50 50 0 1 1 -0.01 -50" fill="none"/>
    <radialGradient id="radarSweep" cx="0" cy="0" r="62"><stop offset="0%" stop-color="#34e0d0" stop-opacity="0.45"/><stop offset="100%" stop-color="#34e0d0" stop-opacity="0"/></radialGradient>
    <radialGradient id="sigilBloom" cx="50%" cy="50%" r="50%"><stop offset="0%" stop-color="#9af4ea" stop-opacity="0.30"/><stop offset="42%" stop-color="#9af4ea" stop-opacity="0.11"/><stop offset="100%" stop-color="#9af4ea" stop-opacity="0"/></radialGradient>
  </defs>
  <style>
    text { font-family: 'JetBrains Mono','SF Mono','Fira Code','Cascadia Code',Consolas,monospace; }
    @keyframes sweep { 0% { transform: translateY(0); } 100% { transform: translateY(592px); } }
    @keyframes flicker { 0%,96%,100% { opacity: 1; } 97% { opacity: 0.97; } 98% { opacity: 0.995; } }
    @keyframes bootReveal { 0% { opacity: 0; } 100% { opacity: 0.92; } }
    @keyframes curBlink { 0%,50% { opacity: 1; } 51%,100% { opacity: 0; } }
    @keyframes heartbeat { 0%,100% { transform: scale(1); opacity: 0.55; } 15% { transform: scale(1.3); opacity: 0.95; } 30% { transform: scale(1); opacity: 0.55; } 50% { transform: scale(1.1); opacity: 0.8; } }
    @keyframes edgeGlow { 0% { stroke-dashoffset: 3610; } 100% { stroke-dashoffset: 0; } }
    @keyframes phosphorBloom { 0%,100% { opacity: 0; } 50% { opacity: 0.02; } }
    @keyframes nodeBlink { 0%,100% { opacity: 0.9; } 50% { opacity: 0.35; } }
    @keyframes kanjiPulse { 0%,100% { opacity: 0.1; } 50% { opacity: 0.2; } }
    @keyframes rollBar { 0% { transform: translateY(-70px); } 100% { transform: translateY(540px); } }
    @keyframes dataBlink { 0%,100% { opacity: 0.12; } 50% { opacity: 0.7; } }
    @keyframes titleGlitch { 0%,90%,100% { transform: translate(0,0); } 91% { transform: translate(-2px,1px); } 94% { transform: translate(2px,-1px); } 97% { transform: translate(-1px,0); } }
    @keyframes okPulse { 0%,100% { opacity: 0.5; } 50% { opacity: 1; } }
    @keyframes linePulse { 0%,100% { opacity: 0.8; } 50% { opacity: 1; } }
    @keyframes titleBreathe { 0%,100% { opacity: 1; } 50% { opacity: 0.85; } }
    @keyframes crtBlank { 0%,90% { opacity: 0; } 91.5% { opacity: 1; } 97% { opacity: 1; } 98.6% { opacity: 0; } 100% { opacity: 0; } }
    @keyframes crtLine { 0%,89.5% { opacity: 0; transform: scaleY(1); } 90.4% { opacity: 0.95; transform: scaleY(0.03); } 91.4% { opacity: 0; transform: scaleY(0.01); } 97.4% { opacity: 0; transform: scaleY(0.02); } 98.2% { opacity: 0.95; transform: scaleY(0.08); } 99.2% { opacity: 0; transform: scaleY(1); } 100% { opacity: 0; } }
    @media (prefers-reduced-motion: reduce) { * { animation: none !important; } }
  </style>

  <rect x="0" y="0" width="1280" height="640" rx="14" fill="#0b0f12"/>
  <rect x="2" y="2" width="1276" height="636" rx="13" fill="#1a242b" stroke="#2a3a42" stroke-width="1"/>
  <line x1="24" y1="13" x2="1256" y2="13" stroke="#2a3a42" stroke-width="0.5"/>
  <line x1="24" y1="620" x2="1256" y2="620" stroke="#2a3a42" stroke-width="0.5"/>
  <rect x="28" y="22" width="1224" height="592" rx="6" fill="#070a0c"/>

  <g clip-path="url(#sc)">
    <g stroke="url(#grid)" stroke-width="0.6" opacity="0.5">
      <line x1="640" y1="422" x2="40" y2="614"/><line x1="640" y1="422" x2="220" y2="614"/>
      <line x1="640" y1="422" x2="400" y2="614"/><line x1="640" y1="422" x2="540" y2="614"/>
      <line x1="640" y1="422" x2="640" y2="614"/><line x1="640" y1="422" x2="740" y2="614"/>
      <line x1="640" y1="422" x2="900" y2="614"/><line x1="640" y1="422" x2="1060" y2="614"/>
      <line x1="640" y1="422" x2="1240" y2="614"/>
    </g>
    <g stroke="#34e0d0" stroke-width="0.5" opacity="0.2">
      <line x1="120" y1="521" x2="1160" y2="521"/><line x1="80" y1="567" x2="1200" y2="567"/><line x1="48" y1="605" x2="1232" y2="605"/>
    </g>
    <!-- ambient "the wired" data nodes -->
    <g fill="#34e0d0">
      <circle cx="360" cy="561" r="1.6" style="animation: dataBlink 2.6s ease-in-out 0s infinite;"/>
      <circle cx="700" cy="593" r="1.6" style="animation: dataBlink 3.1s ease-in-out 0.8s infinite;"/>
      <circle cx="980" cy="543" r="1.6" style="animation: dataBlink 2.4s ease-in-out 1.4s infinite;"/>
      <circle cx="498" cy="601" r="1.6" fill="#7ceee2" style="animation: dataBlink 3.4s ease-in-out 2s infinite;"/>
    </g>
    <!-- CRT roll bar: soft band drifting down the screen -->
    <rect x="28" y="22" width="1224" height="46" fill="#34e0d0" opacity="0.035" style="animation: rollBar 7s linear infinite;"/>
    <rect x="28" y="22" width="1224" height="3" fill="#34e0d0" opacity="0.05" style="animation: sweep 9s linear infinite;"/>
    <rect x="28" y="22" width="1224" height="592" fill="#ffffff" opacity="0" style="animation: phosphorBloom 8s ease-in-out infinite;"/>

    <!-- CENTRAL ANIMATED DAEMON-SIGIL (SMIL) — larger for the tall OG card    -->
    <!-- v4: base scale 1.14 + ACCENT_GLOW bloom backdrop; plate-centre x=640,  -->
    <!-- content-band centre y=392.                                            -->
    <g transform="translate(640,392) scale(1.14)" opacity="0.6" filter="url(#sigilGlow)">
      <animateTransform attributeName="transform" type="scale" additive="sum" values="1;1.015;1" dur="5s" repeatCount="indefinite"/>
      <circle r="92" fill="url(#sigilBloom)"/>
      <g stroke="#34e0d0" stroke-width="0.4" opacity="0.12">
        <line x1="-20" y1="-20" x2="20" y2="-20"/><line x1="-20" y1="-7" x2="20" y2="-7"/>
        <line x1="-20" y1="7" x2="20" y2="7"/><line x1="-20" y1="20" x2="20" y2="20"/>
        <line x1="-20" y1="-20" x2="-20" y2="20"/><line x1="-7" y1="-20" x2="-7" y2="20"/>
        <line x1="7" y1="-20" x2="7" y2="20"/><line x1="20" y1="-20" x2="20" y2="20"/>
      </g>
      <g stroke="#34e0d0" fill="none">
        <animateTransform attributeName="transform" type="rotate" from="0" to="360" dur="48s" repeatCount="indefinite"/>
        <circle r="58" stroke-width="0.8" opacity="0.85"/>
        <circle r="54" stroke-width="0.5" opacity="0.6"/>
        <g stroke-width="0.7" opacity="0.7">
          <line x1="0" y1="-58" x2="0" y2="-54"/><line x1="29" y1="-50.2" x2="27" y2="-46.8"/>
          <line x1="50.2" y1="-29" x2="46.8" y2="-27"/><line x1="58" y1="0" x2="54" y2="0"/>
          <line x1="50.2" y1="29" x2="46.8" y2="27"/><line x1="29" y1="50.2" x2="27" y2="46.8"/>
          <line x1="0" y1="58" x2="0" y2="54"/><line x1="-29" y1="50.2" x2="-27" y2="46.8"/>
          <line x1="-50.2" y1="29" x2="-46.8" y2="27"/><line x1="-58" y1="0" x2="-54" y2="0"/>
          <line x1="-50.2" y1="-29" x2="-46.8" y2="-27"/><line x1="-29" y1="-50.2" x2="-27" y2="-46.8"/>
        </g>
      </g>
      <g>
        <animateTransform attributeName="transform" type="rotate" from="360" to="0" dur="32s" repeatCount="indefinite"/>
        <text font-size="10" fill="#34e0d0" opacity="0.7" font-family="'Noto Sans JP','Yu Gothic','Hiragino Sans',sans-serif">
          <textPath href="#ringPath" startOffset="6%">書記 · SCR1B3 ·</textPath>
        </text>
      </g>
      <g stroke="#34e0d0" stroke-width="0.7" opacity="0.55">
        <path d="M0 -53 L0 -29 M-2.6 -34 L0 -29 L2.6 -34"/>
        <path d="M50.4 -16.4 L27.8 -9 M25.9 -13.2 L27.8 -9 L23.8 -9.8"/>
        <path d="M31.2 42.8 L17.2 23.6 M18 28.3 L17.2 23.6 L13 24.9"/>
        <path d="M-31.2 42.8 L-17.2 23.6 M-13 24.9 L-17.2 23.6 L-18 28.3"/>
        <path d="M-50.4 -16.4 L-27.8 -9 M-23.8 -9.8 L-27.8 -9 L-25.9 -13.2"/>
      </g>
      <g stroke="#34e0d0" stroke-width="1.3" fill="none" stroke-linecap="round" stroke-linejoin="miter" transform="scale(1.35)">
        <path d="M-9 -14 L9 -14 M-9 14 L9 14 M0 -14 L0 14 M-12 0 L-7 0 M7 0 L12 0" pathLength="200" stroke-dasharray="200" stroke-dashoffset="0">
          <animate attributeName="stroke-dashoffset" from="200" to="0" dur="2.4s" begin="0s" fill="freeze" calcMode="spline" keySplines="0.6 0 0.2 1"/>
          <animate attributeName="stroke-width" values="1;1;1.7;1" keyTimes="0;0.85;0.9;1" dur="6s" begin="2.4s" repeatCount="indefinite"/>
        </path>
      </g>
      <g fill="#34e0d0">
        <circle cx="0" cy="-29" r="1.6"/><circle cx="0" cy="29" r="1.6"/><circle cx="-25" cy="0" r="1.4"/><circle cx="25" cy="0" r="1.4"/>
      </g>
    </g>
  </g>
  <rect x="28" y="22" width="1224" height="592" rx="6" fill="url(#scan)"/>
  <rect x="28" y="22" width="1224" height="592" rx="6" fill="url(#vig)"/>
  <rect x="28" y="22" width="1224" height="592" rx="6" fill="url(#phosmask)" opacity="0.04"/>
  <rect x="28" y="22" width="1224" height="592" rx="6" fill="url(#glass)"/>
  <rect x="28" y="22" width="1224" height="592" rx="6" fill="none" stroke="#34e0d0" stroke-width="1" opacity="0.07" stroke-dasharray="22,3610" style="animation: edgeGlow 11s linear infinite;"/>
  <rect x="28" y="22" width="1224" height="592" rx="6" fill="none" stroke="#1a242b"/>

  <g stroke="#34e0d0" stroke-width="1.4" fill="none" opacity="0.55">
    <path d="M56 54 h26 M56 54 v26"/><path d="M1224 54 h-26 M1224 54 v26"/>
    <path d="M56 582 h26 M56 582 v-26"/><path d="M1224 582 h-26 M1224 582 v-26"/>
  </g>

    <text x="1204" y="98" text-anchor="end" font-size="40" fill="#34e0d0" opacity="0.13" font-family="'Noto Sans JP','Yu Gothic','Hiragino Sans',sans-serif" style="animation: kanjiPulse 6s ease-in-out infinite;">書記</text>
  <g style="animation: flicker 7s infinite;">
    <text x="640" y="74" text-anchor="middle" font-size="13" fill="#5a6b73" letter-spacing="7" filter="url(#phos)" style="font-family: 'Times New Roman','Times','Matisse',serif; font-weight: 700; transform: scaleX(0.82); transform-origin: 640px 74px; animation: titleBreathe 6s ease-in-out infinite;">I T A S H A . C O R P</text>
    <g font-size="72" font-weight="bold" letter-spacing="6" text-anchor="middle">
      <text x="643" y="144" fill="#7ceee2" opacity="0.5" filter="url(#soft)" style="animation: titleGlitch 5.5s steps(1) infinite; transform-origin: 640px 144px;">SCR1B3</text>
      <text x="637" y="144" fill="#34e0d0" opacity="0.5" filter="url(#soft)" style="animation: titleGlitch 6.3s steps(1) 0.1s infinite; transform-origin: 640px 144px;">SCR1B3</text>
      <text x="640" y="144" fill="#e9f7ff" filter="url(#glow)" style="animation: titleBreathe 4s ease-in-out infinite;">SCR1B3</text>
    </g>
    <text x="640" y="178" text-anchor="middle" font-size="15" fill="#34e0d0" letter-spacing="3.2" filter="url(#phos)">code editor caret</text>
    <!-- secondary data strip under the subtitle (v4): fills the upper band -->
    <g text-anchor="middle" style="animation: flicker 8s infinite;">
      <line x1="520" y1="192" x2="760" y2="192" stroke="#ff6f91" stroke-width="0.7" opacity="0.3"/>
      <text x="640" y="207" font-size="10.5" fill="#ff6f91" letter-spacing="2.8" opacity="0.6">[ SCRIBE-CORE ] · buffer: mapped · EDITING</text>
    </g>

    <!-- content-band lift: boot block + right instrument shift up uniformly so -->
    <!-- the lowest content clears the bottom corner brackets. -->
    <g transform="translate(0,-10)">
    <g filter="url(#phos)">
      <text x="64" y="226" font-size="13" fill="#5a6b73">SCRIBE-CORE --boot</text>
      <text x="313" y="226" text-anchor="end" font-size="10" fill="#ff6f91" opacity="0.55" letter-spacing="1">EDITING</text>
      <line x1="64" y1="236" x2="313" y2="236" stroke="#5a6b73" stroke-width="0.8" opacity="0.7"/>
      <text x="84" y="262" font-size="13.5" fill="#34e0d0" xml:space="preserve" style="animation: bootReveal 0.35s ease-out 0.2s both, linePulse 3.6s ease-in-out 0.0s infinite;"><tspan>&gt; map rope buffer</tspan><tspan x="246" fill="#8fe0b4" style="animation: okPulse 2s ease-in-out 0.6s infinite;">[ OK ]</tspan></text>
      <text x="84" y="290" font-size="13.5" fill="#34e0d0" xml:space="preserve" style="animation: bootReveal 0.35s ease-out 0.5s both, linePulse 3.6s ease-in-out 0.4s infinite;"><tspan>&gt; load tree-sitter</tspan><tspan x="246" fill="#8fe0b4" style="animation: okPulse 2s ease-in-out 1.0s infinite;">[ OK ]</tspan></text>
      <text x="84" y="318" font-size="13.5" fill="#34e0d0" xml:space="preserve" style="animation: bootReveal 0.35s ease-out 0.8s both, linePulse 3.6s ease-in-out 0.8s infinite;"><tspan>&gt; spawn LSP client</tspan><tspan x="246" fill="#8fe0b4" style="animation: okPulse 2s ease-in-out 1.4s infinite;">[ OK ]</tspan></text>
      <text x="84" y="346" font-size="13.5" fill="#34e0d0" xml:space="preserve" style="animation: bootReveal 0.35s ease-out 1.1s both, linePulse 3.6s ease-in-out 1.2s infinite;"><tspan>&gt; raise caret</tspan><tspan x="246" fill="#8fe0b4" style="animation: okPulse 2s ease-in-out 1.8s infinite;">[ OK ]</tspan></text>
      <text x="84" y="374" font-size="13.5" fill="#34e0d0" xml:space="preserve" style="animation: bootReveal 0.35s ease-out 1.4s both, linePulse 3.6s ease-in-out 1.6s infinite;"><tspan>&gt; render glyphs</tspan><tspan x="246" fill="#8fe0b4" style="animation: okPulse 2s ease-in-out 2.2s infinite;">[ OK ]</tspan></text>
      <line x1="64" y1="396" x2="313" y2="396" stroke="#5a6b73" stroke-width="0.8" opacity="0.7"/>
      <text x="64" y="430" font-size="14" fill="#8fe0b4">root@itasha:scribe$<tspan dx="6" fill="#34e0d0" style="animation: curBlink 1.1s step-end infinite;">█</tspan></text>
      <text x="64" y="458" font-size="11" fill="#5a6b73" letter-spacing="2">local · gpu · no-telemetry</text>
      <g font-size="10" letter-spacing="1.2" style="animation: dataBlink 4s ease-in-out infinite;">
        <rect x="64" y="470" width="8" height="8" fill="#8fe0b4" opacity="0.55"/>
        <rect x="77" y="470" width="8" height="8" fill="#34e0d0" opacity="0.5"/>
        <rect x="90" y="470" width="8" height="8" fill="#ff6f91" opacity="0.45"/>
        <text x="106" y="478" fill="#5a6b73" opacity="0.7">link nominal · uplink EDITING</text>
      </g>
    </g>

    <!-- BESPOKE per-repo right instrument — same fragment as the    -->
    <!-- header, wrapped in scale(0.92) + frame chrome to fill the social panel.-->
    <g transform="translate(770, 220)" style="animation: flicker 9s infinite;" opacity="0.94">
      <text x="14" y="16" fill="#34e0d0" font-size="9.5" letter-spacing="1.6" opacity="0.78">CARET // glyph stream</text>
      <text x="488" y="16" text-anchor="end" fill="#ff6f91" font-size="8" letter-spacing="1.2" opacity="0.6">CH-01 · EDITING</text>
      <g stroke="#ff6f91" stroke-width="1.0" fill="none" opacity="0.5">
        <path d="M10 26 h12 M10 26 v12"/><path d="M492 26 h-12 M492 26 v12"/>
        <path d="M10 270 h12 M10 270 v-12"/><path d="M492 270 h-12 M492 270 v-12"/>
      </g>
      <g transform="translate(2, 30) scale(0.92)">
              <g filter="url(#phos)">
        <rect x="40" y="34" width="500" height="232" rx="4" fill="none" stroke="#34e0d0" stroke-width="0.5" opacity="0.22"/>
        <!-- warding seal ring with rune ticks -->
        <g transform="translate(290,150)">
          <circle r="96" fill="none" stroke="#34e0d0" stroke-width="1.2" opacity="0.5"><animateTransform attributeName="transform" type="rotate" from="0" to="360" dur="40s" repeatCount="indefinite"/></circle>
          <circle r="84" fill="none" stroke="#ff6f91" stroke-width="0.7" opacity="0.4"><animateTransform attributeName="transform" type="rotate" from="360" to="0" dur="28s" repeatCount="indefinite"/></circle>
          <g stroke="#ff6f91" stroke-width="1.1" opacity="0.55">
            <line x1="0" y1="-96" x2="0" y2="-86"/><line x1="68" y1="-68" x2="61" y2="-61"/><line x1="96" y1="0" x2="86" y2="0"/>
            <line x1="68" y1="68" x2="61" y2="61"/><line x1="0" y1="96" x2="0" y2="86"/><line x1="-68" y1="68" x2="-61" y2="61"/>
            <line x1="-96" y1="0" x2="-86" y2="0"/><line x1="-68" y1="-68" x2="-61" y2="-61"/>
          </g>
          <!-- signature glyph drawing on (pathLength) -->
          <path d="M-48 28 C-30 -34 -8 -34 4 6 C12 32 26 30 40 -20 C46 -38 54 -36 60 -18" fill="none" stroke="#9af4ea" stroke-width="2.4" stroke-linecap="round" pathLength="200" stroke-dasharray="200" filter="url(#glow)">
            <animate attributeName="stroke-dashoffset" from="200" to="0" dur="3.2s" begin="0s" fill="freeze" calcMode="spline" keySplines="0.6 0 0.2 1"/>
            <animate attributeName="opacity" values="0.6;1;0.6" dur="4s" begin="3.2s" repeatCount="indefinite"/>
          </path>
        </g>
        <!-- I-beam caret blinking over the seal -->
        <g transform="translate(290,150)">
          <path d="M-7 -44 L7 -44 M-7 44 L7 44 M0 -44 L0 44" stroke="#e9f7ff" stroke-width="2.2" fill="none" filter="url(#glow)">
            <animate attributeName="opacity" values="1;1;0.1;1" dur="1.2s" repeatCount="indefinite"/>
          </path>
        </g>
      </g>
    
      </g>
      <g transform="translate(14, 286)" font-size="9.5" letter-spacing="1">
        <text fill="#ff6f91" opacity="0.7">buffer</text>
        <text x="100" fill="#34e0d0" opacity="0.85">mapped</text>
        <circle cx="188" cy="-3" r="2.6" fill="#8fe0b4" opacity="0.8" style="animation: nodeBlink 2.4s ease-in-out infinite;"/>
        <text x="200" fill="#5a6b73" opacity="0.7">live</text>
      </g>
    </g>
    </g>
  </g>

  <g>
    <circle cx="56" cy="627" r="3.5" fill="#6fb89a" opacity="0.7" style="animation: heartbeat 2.4s ease-in-out infinite; transform-origin: 56px 627px;"/>
    <circle cx="71" cy="627" r="3" fill="#34e0d0" opacity="0.45"/>
    <circle cx="86" cy="627" r="3" fill="#7ceee2" opacity="0.4"/>
    <text x="108" y="627" font-size="9" fill="#3a4a52" letter-spacing="3.2" dominant-baseline="central">ITASHA.CORP</text>
    <text x="640" y="627" font-size="9" fill="#3a4a52" letter-spacing="3" dominant-baseline="central" text-anchor="middle">SCRIBE-CORE · present day · present time</text>
    <text x="1208" y="627" font-size="9" fill="#3a4a52" letter-spacing="2.4" dominant-baseline="central" text-anchor="end">CRT-IC v3</text>
    <circle cx="1224" cy="627" r="4" fill="#6fb89a" opacity="0.5"/>
    <circle cx="1224" cy="627" r="2" fill="#6fb89a" opacity="0.95" style="animation: heartbeat 2.4s ease-in-out infinite; transform-origin: 1224px 627px;"/>
  </g>
  <rect x="28" y="22" width="1224" height="592" rx="6" fill="#050608" opacity="0" style="animation: crtBlank 14s ease-in-out infinite;"/>
  <rect x="28" y="316.5" width="1224" height="3" fill="#e9f7ff" opacity="0" style="animation: crtLine 14s ease-in-out infinite; transform-origin: 640px 317.5px;"/>
</svg>
